HIERARCHY
ROOT Hips
{
	OFFSET 0.00000 0.00000 0.00000
	CHANNELS 6 Xposition Yposition Zposition Zrotation Yrotation Xrotation 
	JOINT LHipJoint
	{
		OFFSET 0 0 0
		CHANNELS 3 Zrotation Yrotation Xrotation
		JOINT LeftHip
		{
			OFFSET 1.26600 -1.82114 0.91038
			CHANNELS 3 Zrotation Yrotation Xrotation
			JOINT LeftKnee
			{
				OFFSET 2.50076 -6.87080 0.00000
				CHANNELS 3 Zrotation Yrotation Xrotation
				JOINT LeftAnkle
				{
					OFFSET 2.57364 -7.07102 0.00000
					CHANNELS 3 Zrotation Yrotation Xrotation
					JOINT LeftToe
					{
						OFFSET 0.13572 -0.37290 1.97004
						CHANNELS 3 Zrotation Yrotation Xrotation
						End Site
						{
							OFFSET 0.00000 -0.00000 1.01383
						}
					}
				}
			}
		}
	}
	JOINT RHipJoint
	{
		OFFSET 0 0 0
		CHANNELS 3 Zrotation Yrotation Xrotation
		JOINT RightHip
		{
			OFFSET -1.20803 -1.82114 0.91038
			CHANNELS 3 Zrotation Yrotation Xrotation
			JOINT RightKnee
			{
				OFFSET -2.54916 -7.00377 0.00000
				CHANNELS 3 Zrotation Yrotation Xrotation
				JOINT RightAnkle
				{
					OFFSET -2.56374 -7.04382 0.00000
					CHANNELS 3 Zrotation Yrotation Xrotation
					JOINT RightToe
					{
						OFFSET -0.23520 -0.64621 2.09921
						CHANNELS 3 Zrotation Yrotation Xrotation
						End Site
						{
							OFFSET -0.00000 -0.00000 1.10065
						}
					}
				}
			}
		}
	}
	JOINT lowerback
	{
		OFFSET 0 0 0
		CHANNELS 3 Zrotation Yrotation Xrotation
		JOINT Chest
		{
			OFFSET 0.05492 2.10797 -0.12074
			CHANNELS 3 Zrotation Yrotation Xrotation
			JOINT Chest2
			{
				OFFSET 0.04577 2.11592 -0.04483
				CHANNELS 3 Zrotation Yrotation Xrotation
				JOINT lowerneck
				{
					OFFSET 0 0 0
					CHANNELS 3 Zrotation Yrotation Xrotation
					JOINT Neck
					{
						OFFSET -0.10759 1.80167 0.15770
						CHANNELS 3 Zrotation Yrotation Xrotation
						JOINT Head
						{
							OFFSET 0.09237 1.77509 -0.40848
							CHANNELS 3 Zrotation Yrotation Xrotation
							End Site
							{
								OFFSET 0.03805 1.84093 -0.15754
							}
						}
					}
				}
				JOINT LeftCollar
				{
					OFFSET 0 0 0
					CHANNELS 3 Zrotation Yrotation Xrotation
					JOINT LeftShoulder
					{
						OFFSET 3.42372 1.09575 -0.28209
CHANNELS 3 Zrotation Xrotation Yrotation
						JOINT LeftElbow
						{
OFFSET 0 -4.956810 0.000000
CHANNELS 3 Zrotation Xrotation Yrotation
							JOINT LeftWrist
							{
OFFSET 0 -3.409150 0.000000
CHANNELS 3 Zrotation Xrotation Yrotation
								JOINT lhand
								{
									OFFSET 0 0 0
CHANNELS 3 Zrotation Xrotation Yrotation
									JOINT LFingers
									{
OFFSET 0 -0.616400 0.000000
CHANNELS 3 Zrotation Xrotation Yrotation
										End Site
										{
OFFSET 0 -0.496960 0.000000
										}
									}
								}
								JOINT LThumb
								{
OFFSET 0 0.000000 0.000000
CHANNELS 3 Zrotation Xrotation Yrotation
									End Site
									{
OFFSET 0 -0.504550 0.504550
									}
								}
							}
						}
					}
				}
				JOINT RightCollar
				{
					OFFSET 0 0 0
					CHANNELS 3 Zrotation Yrotation Xrotation
					JOINT RightShoulder
					{
						OFFSET -3.24731 1.15872 -0.32221
CHANNELS 3 Zrotation Xrotation Yrotation
						JOINT RightElbow
						{
OFFSET 0 -5.352000 0.000000
CHANNELS 3 Zrotation Xrotation Yrotation
							JOINT RightWrist
							{
OFFSET 0 -3.437210 -0.000000
CHANNELS 3 Zrotation Xrotation Yrotation
								JOINT rhand
								{
									OFFSET 0 0 0
CHANNELS 3 Zrotation Xrotation Yrotation
									JOINT RFingers
									{
OFFSET 0 -0.720090 0.000000
CHANNELS 3 Zrotation Xrotation Yrotation
										End Site
										{
OFFSET 0 -0.580560 0.000000
										}
									}
								}
								JOINT RThumb
								{
OFFSET 0 0.000000 0.000000
CHANNELS 3 Zrotation Xrotation Yrotation
									End Site
									{
OFFSET 0 -0.589420 0.589420
									}
								}
							}
						}
					}
				}
			}
		}
	}
}
MOTION
Frames: 12
Frame Time: 0.008333333333333333
1.245284 18.965566 11.244800 -56.305403 79.655116 297.886346 0.000000 0.000000 0.000000 -7.365021 -6.589073 -23.863867 1.364077 7.392077 20.882336 1.670072 13.905661 23.712435 0.001408 -0.244826 -0.672570 0.000000 0.000000 0.000000 30.734555 -7.646993 7.724443 -5.261674 -13.672508 41.941111 -3.474364 -2.536295 -36.235839 -3.890385 12.007404 -35.764456 6.361115 1.108553 7.911395 4.499091 2.178031 4.014064 0.915831 1.227058 -0.214606 -7.592514 -0.933778 -13.628509 1.185961 2.187157 37.770516 2.374569 0.536572 15.541420 0.000000 0.000000 0.000000 1.752646 7.930355 -18.307301 16.750243 -26.527324 3.975174 14.985276 2.866706 -16.705519 0.000000 0.000000 0.000000 -7.125000 0.000000 0.000000 -12.211997 46.865063 0.570308 0.000000 0.000000 0.000000 -7.626140 -0.147182 25.026238 -28.102923 -39.210804 -10.188641 -19.486254 -19.449954 -11.968576 0.000000 0.000000 0.000000 7.125000 0.000000 0.000000 5.372024 17.341298 3.542328
2.373981 18.381009 11.215037 -59.660281 81.234109 294.704482 0.000000 0.000000 0.000000 -10.493694 -4.779787 -19.631200 1.308750 7.246874 20.448808 1.710535 11.506941 23.618025 0.066555 1.652128 4.545624 0.000000 0.000000 0.000000 28.569749 -7.107777 7.869216 -7.804019 -15.973169 51.853698 -4.002337 10.811758 -36.333311 -0.782922 5.648806 -15.768893 4.230200 0.966876 5.760794 4.187668 1.653556 3.697030 1.857922 0.925810 0.576361 -7.188504 -1.040228 -13.649217 1.055354 2.000502 38.125032 2.230089 0.497852 15.739201 0.000000 0.000000 0.000000 1.435019 8.521530 -17.371718 15.153418 -24.359296 3.288953 15.545913 4.338273 -17.029560 0.000000 0.000000 0.000000 -7.125000 0.000000 0.000000 -11.792805 47.264916 0.667981 0.000000 0.000000 0.000000 -6.283947 2.193481 22.126310 -27.045236 -38.222295 -9.527158 -19.097702 -18.838978 -10.768934 0.000000 0.000000 0.000000 7.125000 0.000000 0.000000 5.624959 18.630517 3.550353
3.601331 17.772503 11.111727 -72.361866 83.110049 281.418070 0.000000 0.000000 0.000000 -14.354350 -0.042546 -18.893586 2.496333 9.831230 28.431936 -0.139567 -7.593510 6.759351 0.014390 -0.753797 -2.071509 0.000000 0.000000 0.000000 24.768819 -9.719440 8.689618 -10.349651 -17.601751 60.650777 -2.990401 15.416840 -31.490162 -0.843606 5.858124 -16.373331 2.939634 0.807442 4.980786 3.816097 1.328203 3.119796 2.215992 0.727273 0.392339 -7.559314 -1.461087 -13.281703 1.423001 1.378386 38.430300 2.362116 0.253014 15.837841 0.000000 0.000000 0.000000 0.995334 8.239622 -14.821979 12.486125 -20.529671 2.269960 12.867459 10.043930 -20.697349 0.000000 0.000000 0.000000 -7.125000 0.000000 0.000000 -15.639426 50.501019 2.166449 0.000000 0.000000 0.000000 -5.063082 5.916525 17.891043 -25.271862 -36.480450 -8.450985 -19.722478 -19.276255 -10.626931 0.000000 0.000000 0.000000 7.125000 0.000000 0.000000 5.181726 18.732964 3.256453
4.659569 17.359419 11.020979 -90.295772 82.612277 263.145297 0.000000 0.000000 0.000000 -14.468312 -1.112452 -18.248776 3.887386 12.009029 35.763918 -0.207637 -10.871589 -3.824594 0.564666 4.811948 13.373208 0.000000 0.000000 0.000000 25.300875 -7.524830 7.102204 -13.531536 -18.965653 70.768369 -0.055215 17.786402 -13.012913 -0.212526 2.967678 -8.188834 3.889495 1.117647 5.631697 3.461813 1.835275 2.604199 1.271496 0.977922 -0.468047 -7.709317 -2.191338 -12.867142 2.876139 -0.288078 38.176852 2.733446 -0.250832 15.697770 0.000000 0.000000 0.000000 0.688655 6.872228 -8.210365 10.890626 -18.120509 1.741759 17.228489 15.734904 -18.257729 0.000000 0.000000 0.000000 -7.125000 0.000000 0.000000 -10.597744 48.742735 0.988457 0.000000 0.000000 0.000000 -2.764226 7.434476 11.241793 -20.466271 -31.199909 -5.770983 -19.960914 -17.428337 -12.053805 0.000000 0.000000 0.000000 7.125000 0.000000 0.000000 5.043042 17.211170 3.338005
5.587210 17.301923 10.869292 -69.479303 84.978235 283.474710 0.000000 0.000000 0.000000 -18.590177 -1.686846 -13.401570 3.895284 12.019634 35.801552 0.221400 -7.914775 -9.374673 0.906007 6.065573 16.974758 0.000000 0.000000 0.000000 22.131135 -0.850810 3.873944 -17.123012 -19.800282 81.561226 0.483800 12.742106 8.591585 -0.169972 -2.655579 7.321323 2.286161 1.873243 5.714420 2.270999 2.710063 3.003221 0.897207 1.401561 -0.115746 -7.633802 -2.134852 -13.077612 3.009155 -0.216095 38.523902 2.806512 -0.192264 15.918549 0.000000 0.000000 0.000000 0.421696 5.189159 -6.348147 10.772962 -17.939379 1.705370 18.703489 13.765561 -18.598136 0.000000 0.000000 0.000000 -7.125000 0.000000 0.000000 -9.297455 49.311546 0.996662 0.000000 0.000000 0.000000 -2.760888 6.037488 9.902477 -15.388492 -24.684404 -3.386521 -18.873515 -11.981133 -11.382588 0.000000 0.000000 0.000000 7.125000 0.000000 0.000000 5.790374 18.004875 3.736197
6.298535 17.536877 10.727483 -44.274758 84.579281 309.077467 0.000000 0.000000 0.000000 -20.998507 -2.797492 -7.001356 2.794068 10.353702 30.130074 0.429850 -2.840590 -11.734344 0.659583 5.194388 14.463924 0.000000 0.000000 0.000000 19.030107 3.576233 -7.005275 -22.496914 -19.849484 97.318233 0.139458 6.710371 3.652176 -0.003445 -0.373201 1.025573 2.145572 2.064813 6.215658 2.209377 2.974332 2.896371 0.873670 1.527578 -0.507707 -7.445253 -1.585649 -13.705991 2.077786 1.103447 39.481505 2.633601 0.249554 16.496026 0.000000 0.000000 0.000000 -0.765110 5.474432 -8.871155 12.757951 -20.931392 2.366112 16.765281 9.601187 -20.527334 0.000000 0.000000 0.000000 -7.125000 0.000000 0.000000 -11.823657 50.960410 1.757350 0.000000 0.000000 0.000000 -3.870099 5.211703 9.784359 -14.369505 -23.260504 -2.972531 -15.687611 -5.749355 -11.360840 0.000000 0.000000 0.000000 7.125000 0.000000 0.000000 8.024233 18.257794 5.157191
6.795528 17.828183 10.661609 -20.969697 85.955604 332.279825 0.000000 0.000000 0.000000 -24.042009 -0.417813 -0.125627 1.245015 7.074132 19.935414 0.190382 -1.211089 -7.903217 0.298694 3.513890 9.712892 0.000000 0.000000 0.000000 11.180122 1.126710 -24.725899 -28.741833 -18.058679 116.383311 -0.145237 7.690918 -8.108381 -0.057519 -1.547830 4.257528 -0.214451 1.400699 8.368753 1.694182 1.970779 3.128020 1.678052 1.014984 -1.520669 -6.127142 -0.722688 -14.157885 0.959644 2.232698 38.241251 2.051259 0.729640 15.906948 0.000000 0.000000 0.000000 -0.122617 6.209565 -17.584495 15.252444 -24.496585 3.329997 17.285424 4.246760 -19.412250 0.000000 0.000000 0.000000 -7.125000 0.000000 0.000000 -10.922718 49.920625 1.338748 0.000000 0.000000 0.000000 -4.474888 4.786404 12.707794 -17.204601 -27.126623 -4.180321 -18.179152 -11.788373 -11.794164 0.000000 0.000000 0.000000 7.125000 0.000000 0.000000 6.281612 17.629660 4.108967
7.246521 18.056621 10.637592 21.967274 87.343535 375.650881 0.000000 0.000000 0.000000 -26.321259 4.101164 10.613143 0.000000 0.000000 0.000000 0.018025 0.946454 2.381630 0.409025 4.105412 11.373435 0.000000 0.000000 0.000000 2.223389 -6.044002 -44.880531 -33.236604 -15.129080 132.026839 0.115123 18.939953 -12.290291 -0.127186 -2.289741 6.307311 -3.800164 0.014196 9.840725 2.028211 -0.177842 3.373448 4.270576 -0.060652 -1.981903 -6.775605 0.260094 -15.003828 0.074503 4.174469 37.505425 2.095037 1.292642 15.677355 0.000000 0.000000 0.000000 0.044071 6.164577 -24.102905 17.625426 -27.674861 4.373952 15.488241 4.844058 -18.007427 0.000000 0.000000 0.000000 -7.125000 0.000000 0.000000 -12.158486 48.238011 0.984496 0.000000 0.000000 0.000000 -6.488380 4.259233 16.004327 -21.572768 -32.490589 -6.354964 -21.531867 -18.625381 -13.160943 0.000000 0.000000 0.000000 7.125000 0.000000 0.000000 3.991659 15.892564 2.752804
7.712767 18.178269 10.655498 70.372672 87.752267 423.956307 0.000000 0.000000 0.000000 -27.747160 3.867888 12.595552 0.000000 0.000000 0.000000 0.020351 1.323028 2.560909 0.145566 2.458450 6.774578 0.000000 0.000000 0.000000 0.269539 -10.980013 -63.906853 -34.991092 -13.393760 139.138891 -0.172251 22.764960 -17.271273 -0.001691 0.261990 -0.719753 -5.289242 -0.833217 11.453750 1.868068 -1.490768 3.783708 5.133725 -0.707415 -2.259020 -6.479684 0.527139 -14.854153 0.121399 4.308256 36.802693 2.054831 1.396122 15.283946 0.000000 0.000000 0.000000 2.675107 4.550991 -29.374726 19.433443 -29.953651 5.245579 14.496504 5.142801 -17.845294 0.000000 0.000000 0.000000 -7.125000 0.000000 0.000000 -13.032183 47.935836 0.959137 0.000000 0.000000 0.000000 -6.466321 4.295497 16.636712 -25.840412 -37.050607 -8.791387 -20.011532 -20.034936 -12.599319 0.000000 0.000000 0.000000 7.125000 0.000000 0.000000 5.022486 16.632106 3.387868
8.177192 18.276431 10.715331 116.075775 88.169787 469.247002 0.000000 0.000000 0.000000 -27.268603 3.648409 14.715373 0.000000 0.000000 0.000000 0.041455 2.488439 3.763820 0.000197 0.080748 0.221932 0.000000 0.000000 0.000000 3.130501 -3.310285 -77.739727 -33.929652 -14.495921 134.737146 -0.531139 20.607971 -18.466285 -0.182219 2.749440 -7.581987 -5.594864 -1.511546 13.403751 2.292920 -2.442607 4.383168 5.945765 -1.167825 -2.528804 -6.958661 0.475203 -15.415789 0.827653 4.193744 37.291094 2.444178 1.348617 15.624679 0.000000 0.000000 0.000000 4.010599 1.941416 -29.218067 20.766732 -31.555062 5.927389 15.816008 4.179424 -17.821954 0.000000 0.000000 0.000000 -7.125000 0.000000 0.000000 -11.790602 48.098560 0.913030 0.000000 0.000000 0.000000 -6.803235 3.505805 17.224084 -27.149544 -38.321432 -9.591652 -20.421417 -21.117424 -13.532402 0.000000 0.000000 0.000000 7.125000 0.000000 0.000000 4.770213 15.610104 3.322236
8.642728 18.347378 10.767049 151.421124 87.953326 503.588915 0.000000 0.000000 0.000000 -26.159356 4.169108 17.354947 0.000000 0.000000 0.000000 0.117672 2.138599 6.092227 0.037345 -1.199598 -3.298404 0.000000 0.000000 0.000000 4.429139 4.159671 -82.742959 -30.667837 -17.016457 122.768496 -1.021195 13.312263 -19.028766 -0.587537 4.791552 -13.329151 -5.594270 -1.639396 15.876947 2.844996 -2.598493 5.331154 6.652720 -1.224799 -2.795750 -7.310830 0.164332 -15.207248 1.097431 3.594471 36.495558 2.483309 1.093399 15.198874 0.000000 0.000000 0.000000 3.905464 -1.211726 -27.575596 21.744672 -32.687204 6.447405 18.669446 1.783279 -18.109542 0.000000 0.000000 0.000000 -7.125000 0.000000 0.000000 -9.181344 48.805981 0.867912 0.000000 0.000000 0.000000 -7.387030 2.369102 17.364133 -26.233186 -37.437978 -9.028980 -21.428272 -20.119996 -13.336680 0.000000 0.000000 0.000000 7.125000 0.000000 0.000000 4.070358 15.716279 2.822907
9.136999 18.319750 10.822881 165.848611 87.787003 517.775881 0.000000 0.000000 0.000000 -25.029228 4.896903 19.110068 0.000261 0.020489 0.056298 0.155955 1.525547 7.081318 0.004115 0.407819 1.120561 0.000000 0.000000 0.000000 4.993395 8.344119 -83.192749 -26.772960 -18.862352 110.171144 -0.520763 11.072401 -14.025094 -0.001735 0.267344 -0.734440 -5.339455 -1.467649 17.182573 2.887945 -2.304308 6.113346 6.540920 -1.070192 -2.705729 -7.495626 -0.225329 -14.498079 2.277854 2.444441 35.535396 2.769808 0.760248 14.598003 0.000000 0.000000 0.000000 5.036726 -3.779913 -27.504431 22.859014 -33.934306 7.059482 18.696591 -1.305329 -18.006869 0.000000 0.000000 0.000000 -7.125000 0.000000 0.000000 -9.125496 48.704347 0.840314 0.000000 0.000000 0.000000 -7.091475 1.902150 17.693398 -24.966620 -36.169790 -8.270147 -20.988897 -18.694929 -12.963243 0.000000 0.000000 0.000000 7.125000 0.000000 0.000000 4.358215 16.156138 2.982216
